<svg xmlns="http://www.w3.org/2000/svg" height="48" viewBox="0 -960 960 960" width="48"><path d="M480-179q128-116 189-204.419 61-88.42 61-171.581 0-112.758-73.012-184.379Q583.977-811 479.78-811t-176.988 71.621Q230-667.758 230-555q0 83.441 62.5 171.72Q355-295 480-179Zm-.489 96Q468-83 454.91-87q-13.089-4-22.91-13-48-38-99.503-89.226t-94.5-109.5Q195-357 167-421.938 139-486.875 139-555q0-159.719 103.253-253.86Q345.506-903 480-903q134.494 0 238.247 94.14Q822-714.719 822-555q0 68.125-28.5 133.062Q765-357 722.003-298.726t-94.5 109.5Q576-138 530-100q-11.955 9-25.466 13-13.512 4-25.023 4ZM480-560Zm.133 76Q512-484 534.5-506.133q22.5-22.133 22.5-54T534.367-614.5q-22.633-22.5-54.5-22.5T426-614.367q-22 22.633-22 54.5T426.133-506q22.133 22 54 22Z"/></svg>